<svg xmlns="http://www.w3.org/2000/svg"  viewBox="0 0 80 80" width="80px" height="80px"><path fill="#8bb7f0" d="M40,77.5C19.3,77.5,2.5,60.7,2.5,40S19.3,2.5,40,2.5S77.5,19.3,77.5,40S60.7,77.5,40,77.5z"/><path fill="#4e7ab5" d="M40,3c20.4,0,37,16.6,37,37S60.4,77,40,77S3,60.4,3,40S19.6,3,40,3 M40,2C19,2,2,19,2,40 s17,38,38,38s38-17,38-38S61,2,40,2L40,2z"/><path fill="#fff" d="M40.4,60h-0.8C32.1,60,26,53.9,26,46.4V33.6C26,26.1,32.1,20,39.6,20h0.8C47.9,20,54,26.1,54,33.6h-6 c0-4.2-3.4-7.6-7.6-7.6h-0.8c-4.2,0-7.6,3.4-7.6,7.6v12.8c0,4.2,3.4,7.6,7.6,7.6h0.8c4.2,0,7.6-3.4,7.6-7.6h6 C54,53.9,47.9,60,40.4,60z"/></svg>